<?xml version="1.0" encoding="UTF-8"?>
<!DOCTYPE svg PUBLIC "-//W3C//DTD SVG 1.1//EN" "http://www.w3.org/Graphics/SVG/1.1/DTD/svg11.dtd">
<!-- Creator: CorelDRAW 2020 (64-Bit) -->
<svg xmlns="http://www.w3.org/2000/svg" xml:space="preserve" width="21.59cm" height="27.94cm" version="1.1" style="shape-rendering:geometricPrecision; text-rendering:geometricPrecision; image-rendering:optimizeQuality; fill-rule:evenodd; clip-rule:evenodd"
viewBox="0 0 21590 27940"
 xmlns:xlink="http://www.w3.org/1999/xlink"
 xmlns:xodm="http://www.corel.com/coreldraw/odm/2003">
 <defs>
  <style type="text/css">
   <![CDATA[
    .fil0 {fill:#292929}
   ]]>
  </style>
 </defs>
 <g id="Capa_x0020_1">
  <metadata id="CorelCorpID_0Corel-Layer"/>
  <g id="_2316039350384">
   <path class="fil0" d="M7192 6031.29c61.18,-15.79 62.72,-30.19 136.36,-30.19l10064.19 0c73.68,0 75.19,14.4 136.36,30.19 -19.52,260.76 -1555.82,3327.34 -1615.57,3402.46 -274.92,339.77 -472.74,1138.02 -608.39,1227.86 -143.96,95.3 -5512.89,46.51 -6121.92,46.51 -679.87,0 -1737.89,-4049.93 -1991.03,-4676.83zm-4854.79 -3892.34l0 1568.98c0,494.33 593.54,304.7 898.96,300.53 248.78,-3.38 798.8,-21.13 883.78,50.57 86.91,73.28 53.63,129.58 146.47,230.22 110.79,120.17 1923.96,5020.45 1947.06,5178.04 40.82,278.22 59.18,245.51 199.56,412.89 43.17,51.5 419.17,1409.15 556.59,1556.9 350.36,376.69 -1466.81,2321.62 -1243.35,3457.24 150.95,766.67 858.27,1908.79 1629.37,1908.79l10936.95 0c167.42,0 245.47,-143.62 245.47,-331.93l0 -1478.46c0,-454.38 -432.34,-331.93 -1063.69,-331.93 -1397.56,0 -9529.41,48.5 -9600.51,-30.15 -10.28,-141.66 161.2,-352.6 207.04,-434.74 1133.37,-2030.63 737.34,-1291.08 3474.98,-1315.32 881.85,0 1763.73,0 2645.58,0 377.74,0 1580.37,92.02 1892.49,-109.01 140.67,-90.63 58.37,-106.06 293.14,-218.78 63.62,-30.54 64.69,-33.53 125.28,-72.66 164.84,-106.38 224.08,-278.12 359.34,-417.11 27.29,-28.04 3,0.93 41.01,-45.19 97.64,-118.49 109.56,-221.8 156.88,-369.56 630.78,-1970.47 2087.87,-3972.06 2978.15,-5938.25 62.24,-137.31 77.61,-39.81 167.13,-177.19 119.03,-182.68 137.55,-959.76 29.44,-1177.97 -57.72,-116.5 -199.01,-182.11 -287.99,-315.03 -97.25,-145.23 -157.84,-185.28 -357.83,-207.59 -354.57,-39.56 -2345.57,-3.6 -2806,-3.6 -915.74,0 -10179.06,38.59 -10353.89,-11.37 -122.28,-34.96 -156.97,-193.51 -263.96,-311.44 -342.65,-377.54 -126.27,-1668.62 -1055.51,-1668.62l-1909.17 0c-155.4,0 -691.18,4.56 -777.06,75.73 -61.14,50.71 -95.71,124.37 -95.71,226.01z"/>
   <path class="fil0" d="M5882.84 19669.55c-73.03,2795.27 3736.56,2609.63 3736.56,392.26 0,-980.21 -540.71,-2314.77 -1633.49,-2411.74 -1138.46,149.57 -1825.52,287.17 -2103.07,2019.48z"/>
   <path class="fil0" d="M14851.67 20458.88c497.28,1585.48 2764.64,1838.47 3635.89,134.36 397.49,-1209.44 -189.48,-2692.25 -989.54,-2953.15 -2081,-912.82 -3240.14,1292.58 -2646.35,2818.79z"/>
  </g>
 </g>
</svg>
